<svg id="svg" version="1.1" xmlns="http://www.w3.org/2000/svg" xmlns:xlink="http://www.w3.org/1999/xlink" width="400" height="400" viewBox="0, 0, 400,400"><g id="svgg"><path id="path0" d="M92.499 31.129 C 92.100 31.383,92.018 43.149,92.099 88.624 L 92.200 145.800 96.400 145.660 C 98.710 145.582,101.500 145.360,102.600 145.166 C 104.509 144.828,107.112 144.480,114.200 143.614 C 115.960 143.399,118.750 143.042,120.400 142.821 C 125.103 142.191,129.852 141.624,134.200 141.174 C 136.400 140.946,139.370 140.587,140.800 140.376 C 142.230 140.166,145.020 139.806,147.000 139.577 C 148.980 139.348,151.860 138.979,153.400 138.758 C 154.940 138.536,157.820 138.180,159.800 137.967 C 161.780 137.753,164.660 137.405,166.200 137.193 C 167.740 136.981,171.518 136.538,174.596 136.209 C 177.674 135.880,180.716 135.429,181.356 135.206 C 181.996 134.983,183.573 134.800,184.860 134.800 L 187.200 134.800 187.200 234.400 L 187.200 334.000 184.826 334.000 C 183.520 334.000,181.977 333.819,181.397 333.599 C 179.828 333.002,176.290 332.930,176.103 333.490 C 175.993 333.822,175.652 333.848,174.947 333.580 C 174.398 333.371,172.287 333.200,170.258 333.200 C 168.196 333.200,165.517 332.924,164.184 332.575 C 162.873 332.231,159.640 331.801,157.000 331.620 C 154.360 331.438,151.682 331.085,151.049 330.835 C 150.416 330.586,147.536 330.221,144.649 330.026 C 141.762 329.830,138.950 329.499,138.400 329.290 C 137.850 329.080,135.242 328.779,132.605 328.620 C 129.967 328.461,127.087 328.079,126.205 327.771 C 125.322 327.463,123.871 327.209,122.980 327.206 C 122.089 327.203,121.171 327.011,120.939 326.779 C 120.199 326.039,116.313 325.218,112.400 324.975 C 110.310 324.845,107.250 324.488,105.600 324.182 C 101.284 323.380,92.757 322.683,92.342 323.098 C 92.149 323.291,92.039 333.276,92.097 345.423 L 92.200 367.400 218.800 367.400 L 345.400 367.400 345.400 236.400 L 345.400 105.400 344.527 103.617 C 343.473 101.464,274.624 32.400,273.532 32.400 C 273.155 32.400,272.748 32.239,272.626 32.042 C 272.505 31.845,271.639 31.549,270.703 31.384 C 268.392 30.977,93.131 30.726,92.499 31.129 M268.705 46.100 L 268.600 60.600 265.220 60.717 C 260.418 60.884,260.800 59.650,260.800 75.000 C 260.800 90.350,260.418 89.116,265.220 89.283 L 268.600 89.400 268.600 96.200 L 268.600 103.000 265.000 103.200 L 261.400 103.400 261.400 117.200 L 261.400 131.000 289.200 131.000 L 317.000 131.000 317.200 119.600 L 317.400 108.200 331.301 108.095 L 345.201 107.990 345.101 237.495 L 345.000 367.000 218.800 367.000 L 92.600 367.000 92.600 345.400 L 92.600 323.800 96.200 323.922 C 98.180 323.990,100.430 324.218,101.200 324.429 C 101.970 324.640,104.940 324.994,107.800 325.214 C 110.660 325.435,113.549 325.794,114.219 326.012 C 114.889 326.230,116.509 326.542,117.819 326.706 L 120.200 327.003 120.310 334.172 C 120.378 338.632,120.585 341.541,120.858 341.870 C 121.502 342.646,175.691 342.654,176.334 341.879 C 176.572 341.593,176.819 339.748,176.883 337.779 C 176.999 334.239,177.011 334.201,178.000 334.266 C 178.550 334.302,180.751 334.462,182.891 334.622 C 185.797 334.839,186.936 334.785,187.391 334.408 C 188.320 333.637,188.320 135.163,187.391 134.392 C 186.688 133.809,179.509 134.148,177.673 134.851 C 177.083 135.077,174.440 135.426,171.800 135.626 C 169.160 135.826,165.920 136.245,164.600 136.558 C 163.280 136.871,160.261 137.239,157.891 137.376 C 155.522 137.514,153.108 137.807,152.527 138.028 C 151.947 138.248,149.206 138.602,146.436 138.813 C 143.666 139.024,140.770 139.378,140.000 139.600 C 139.230 139.822,136.222 140.184,133.316 140.405 C 130.410 140.627,127.578 140.980,127.022 141.192 C 126.466 141.403,123.624 141.746,120.705 141.954 C 117.787 142.163,114.894 142.528,114.275 142.766 C 113.656 143.004,111.316 143.306,109.075 143.437 C 106.834 143.568,103.849 143.949,102.443 144.285 C 101.036 144.621,98.246 144.919,96.243 144.948 L 92.600 145.000 92.499 88.300 L 92.397 31.600 180.604 31.600 L 268.810 31.600 268.705 46.100 M308.904 67.887 C 327.979 86.965,343.438 102.722,343.257 102.903 C 343.076 103.084,327.332 103.105,308.269 102.951 L 273.609 102.671 273.504 68.835 C 273.399 34.826,273.419 33.200,273.939 33.200 C 274.095 33.200,289.829 48.809,308.904 67.887 M120.844 61.347 C 120.519 61.738,120.419 65.779,120.495 75.447 L 120.600 89.000 148.156 89.103 C 168.178 89.177,175.860 89.082,176.256 88.754 C 177.002 88.134,177.063 62.023,176.320 61.280 C 175.566 60.526,121.470 60.592,120.844 61.347 M191.295 61.133 C 190.900 61.383,190.812 64.474,190.895 75.227 L 191.000 89.000 218.800 89.000 L 246.600 89.000 246.705 75.227 C 246.788 64.474,246.700 61.383,246.305 61.133 C 245.645 60.714,191.955 60.714,191.295 61.133 M272.957 61.433 C 273.091 61.781,273.200 67.886,273.200 75.000 C 273.200 82.114,273.091 88.219,272.957 88.567 C 272.662 89.336,269.610 89.450,268.880 88.720 C 268.006 87.846,268.213 62.030,269.100 61.357 C 270.104 60.595,272.655 60.645,272.957 61.433 M120.582 103.703 C 120.476 103.979,120.436 110.234,120.494 117.603 L 120.600 131.000 148.375 131.103 C 170.330 131.184,176.216 131.100,176.469 130.703 C 177.016 129.840,176.875 104.235,176.320 103.680 C 175.604 102.964,120.857 102.987,120.582 103.703 M190.983 103.700 C 190.876 103.978,190.836 110.234,190.894 117.603 L 191.000 131.000 218.800 131.000 L 246.600 131.000 246.600 117.200 L 246.600 103.400 218.888 103.297 C 196.850 103.216,191.137 103.298,190.983 103.700 M316.700 103.801 C 317.254 103.994,317.377 106.702,316.868 107.503 C 316.616 107.900,311.529 107.985,292.774 107.903 L 269.000 107.800 268.876 106.070 C 268.807 105.119,268.927 104.129,269.141 103.870 C 269.518 103.416,315.401 103.349,316.700 103.801 M190.983 146.100 C 190.876 146.378,190.836 152.634,190.894 160.003 L 191.000 173.400 218.800 173.400 L 246.600 173.400 246.600 159.600 L 246.600 145.800 218.888 145.697 C 196.850 145.616,191.137 145.698,190.983 146.100 M261.295 159.497 L 261.400 173.400 289.092 173.503 L 316.783 173.605 317.003 172.703 C 317.125 172.206,317.173 165.950,317.112 158.800 L 317.000 145.800 289.095 145.697 L 261.190 145.595 261.295 159.497 M190.983 188.100 C 190.876 188.378,190.836 194.634,190.894 202.003 L 191.000 215.400 218.800 215.400 L 246.600 215.400 246.600 201.600 L 246.600 187.800 218.888 187.697 C 196.850 187.616,191.137 187.698,190.983 188.100 M261.383 188.100 C 261.276 188.378,261.236 194.634,261.294 202.003 L 261.400 215.400 289.200 215.400 L 317.000 215.400 317.000 201.600 L 317.000 187.800 289.288 187.697 C 267.250 187.616,261.537 187.698,261.383 188.100 M137.400 200.800 C 136.960 200.989,134.786 201.156,132.570 201.172 C 127.978 201.204,127.257 201.607,126.429 204.600 C 126.186 205.480,125.720 206.549,125.394 206.976 C 125.067 207.404,124.800 208.096,124.800 208.515 C 124.800 208.934,124.542 209.754,124.227 210.338 C 123.081 212.462,121.600 215.965,121.600 216.552 C 121.600 216.882,121.420 217.264,121.200 217.400 C 120.980 217.536,120.597 218.453,120.349 219.437 C 119.568 222.540,118.039 223.015,117.254 220.400 C 116.490 217.857,115.132 214.207,114.799 213.800 C 114.619 213.580,114.345 212.723,114.190 211.896 C 114.036 211.068,113.755 210.296,113.566 210.179 C 113.376 210.062,113.029 209.209,112.794 208.283 C 112.559 207.357,112.197 206.240,111.989 205.800 C 111.781 205.360,111.384 204.288,111.106 203.417 C 110.466 201.413,110.027 201.291,103.326 201.240 C 95.167 201.178,95.216 201.124,98.037 207.123 C 98.897 208.951,99.600 210.559,99.600 210.697 C 99.600 210.835,99.940 211.679,100.355 212.574 C 101.212 214.419,103.573 219.650,105.648 224.300 C 106.114 225.345,107.139 227.550,107.925 229.200 C 110.257 234.093,110.160 234.653,105.271 244.600 C 103.000 249.220,100.973 253.270,100.768 253.600 C 100.563 253.930,100.290 254.470,100.163 254.800 C 100.035 255.130,98.850 257.577,97.529 260.239 C 94.003 267.346,94.115 267.520,102.200 267.520 C 108.531 267.520,108.857 267.414,109.600 265.102 C 109.930 264.075,110.425 263.011,110.700 262.738 C 110.975 262.464,111.206 261.961,111.214 261.620 C 111.221 261.279,111.575 260.280,112.000 259.400 C 112.425 258.520,112.779 257.590,112.786 257.332 C 112.794 257.075,113.063 256.355,113.384 255.732 C 114.503 253.563,116.000 250.046,116.000 249.586 C 116.000 249.332,116.256 248.646,116.569 248.062 C 116.881 247.478,117.236 246.685,117.356 246.300 C 117.856 244.700,118.714 245.920,120.802 251.200 C 122.774 256.185,123.309 257.475,124.038 259.000 C 124.458 259.880,124.802 260.826,124.801 261.101 C 124.800 261.377,125.160 262.275,125.600 263.096 C 126.040 263.916,126.400 264.871,126.400 265.218 C 126.400 267.070,127.267 267.388,133.067 267.657 C 136.110 267.799,139.164 268.041,139.853 268.196 C 141.775 268.627,141.994 265.438,140.196 263.200 C 139.481 262.310,137.600 258.142,137.600 257.448 C 137.600 257.118,137.443 256.750,137.251 256.631 C 136.928 256.432,136.242 255.068,133.814 249.800 C 131.661 245.128,128.309 238.091,127.583 236.721 C 126.600 234.863,126.594 233.560,127.560 231.679 C 129.322 228.252,129.911 226.939,130.156 225.900 C 130.299 225.295,130.592 224.800,130.808 224.800 C 131.023 224.800,131.200 224.578,131.200 224.306 C 131.200 224.034,131.634 222.909,132.165 221.806 C 136.666 212.449,137.578 210.464,137.811 209.516 C 137.958 208.920,138.331 208.223,138.639 207.967 C 138.948 207.711,139.200 207.333,139.200 207.126 C 139.200 206.920,139.671 205.755,140.247 204.537 C 141.848 201.154,140.548 199.447,137.400 200.800 M140.194 201.990 C 140.327 202.205,140.041 203.150,139.560 204.090 C 137.501 208.112,137.200 208.792,137.200 209.416 C 137.200 209.778,136.840 210.531,136.400 211.091 C 135.960 211.650,135.600 212.422,135.600 212.805 C 135.600 213.188,135.337 213.720,135.015 213.987 C 134.694 214.254,134.320 214.861,134.185 215.336 C 134.050 215.811,133.602 216.920,133.191 217.800 C 132.779 218.680,132.344 219.670,132.224 220.000 C 132.103 220.330,131.853 220.870,131.667 221.200 C 130.213 223.778,129.200 226.047,129.200 226.726 C 129.200 227.170,129.059 227.593,128.887 227.667 C 126.836 228.541,125.589 235.442,127.128 237.399 C 127.608 238.009,128.000 238.771,128.000 239.092 C 128.000 239.414,128.269 240.154,128.597 240.738 C 128.926 241.322,129.375 242.250,129.596 242.800 C 129.817 243.350,130.168 244.070,130.375 244.400 C 130.583 244.730,131.498 246.620,132.409 248.600 C 133.320 250.580,134.861 253.820,135.833 255.800 C 136.805 257.780,137.600 259.700,137.600 260.067 C 137.600 260.433,137.741 260.793,137.913 260.867 C 139.581 261.578,140.813 267.020,139.295 266.971 C 138.803 266.956,136.099 266.911,133.286 266.871 L 128.172 266.800 127.486 265.638 C 127.109 264.999,126.800 264.121,126.800 263.687 C 126.800 263.253,126.542 262.683,126.226 262.421 C 125.910 262.159,125.532 261.372,125.386 260.672 C 125.241 259.973,124.882 259.021,124.590 258.558 C 124.297 258.096,123.936 257.067,123.787 256.273 C 123.638 255.478,123.265 254.620,122.958 254.365 C 122.651 254.110,122.400 253.606,122.400 253.245 C 122.400 252.884,122.064 251.961,121.653 251.194 C 121.243 250.427,120.781 249.227,120.628 248.528 C 120.474 247.828,120.090 247.041,119.774 246.779 C 119.458 246.517,119.200 246.076,119.200 245.800 C 119.200 245.524,118.930 245.074,118.600 244.800 C 117.863 244.189,116.800 244.897,116.800 246.000 C 116.800 246.386,116.530 246.926,116.200 247.200 C 115.870 247.474,115.594 247.991,115.587 248.349 C 115.581 248.707,115.132 249.900,114.591 251.000 C 114.050 252.100,113.606 253.304,113.604 253.676 C 113.602 254.048,113.425 254.461,113.211 254.593 C 112.997 254.726,112.623 255.573,112.379 256.477 C 112.136 257.381,111.706 258.351,111.424 258.633 C 111.142 258.915,110.794 259.878,110.651 260.773 C 110.508 261.668,110.220 262.400,110.011 262.400 C 109.802 262.400,109.426 263.165,109.176 264.100 C 108.445 266.834,108.535 266.800,101.951 266.800 C 96.125 266.800,96.000 266.782,96.000 265.939 C 96.000 264.962,97.793 260.975,98.401 260.600 C 98.620 260.464,98.800 260.016,98.800 259.605 C 98.800 259.194,99.061 258.596,99.380 258.277 C 99.699 257.958,100.084 257.180,100.234 256.548 C 100.384 255.917,100.722 255.130,100.984 254.800 C 101.246 254.470,101.927 253.210,102.498 252.000 C 104.551 247.649,105.657 245.390,106.026 244.800 C 106.232 244.470,106.580 243.750,106.799 243.200 C 107.019 242.650,107.372 241.930,107.584 241.600 C 107.796 241.270,108.438 239.920,109.010 238.600 C 109.582 237.280,110.218 235.887,110.425 235.505 C 110.938 234.556,110.897 233.863,110.249 232.532 C 109.946 231.910,109.423 230.770,109.087 230.000 C 106.740 224.617,104.923 220.617,104.153 219.138 C 103.849 218.554,103.600 217.814,103.600 217.492 C 103.600 217.171,103.240 216.450,102.800 215.891 C 102.360 215.331,102.000 214.666,102.000 214.412 C 102.000 214.158,101.534 212.927,100.965 211.675 C 100.396 210.424,99.654 208.770,99.317 208.000 C 98.980 207.230,98.365 205.934,97.952 205.121 C 96.384 202.036,96.442 202.000,103.026 202.000 C 109.601 202.000,110.253 202.197,110.641 204.305 C 110.793 205.127,111.251 206.427,111.659 207.194 C 112.066 207.961,112.400 208.956,112.400 209.405 C 112.400 209.854,112.647 210.577,112.949 211.011 C 113.251 211.445,113.628 212.430,113.788 213.200 C 113.948 213.970,114.307 214.963,114.587 215.406 C 114.866 215.849,115.226 216.839,115.387 217.606 C 115.547 218.373,115.904 219.360,116.179 219.800 C 116.454 220.240,116.806 221.284,116.962 222.121 C 117.473 224.874,120.085 223.963,120.645 220.836 C 120.786 220.046,121.135 219.130,121.420 218.800 C 121.704 218.470,122.061 217.705,122.212 217.099 C 122.364 216.494,122.828 215.330,123.244 214.514 C 123.660 213.698,124.000 212.813,124.000 212.548 C 124.000 212.091,124.296 211.426,126.057 207.921 C 126.466 207.107,126.800 206.227,126.800 205.965 C 126.800 205.702,127.189 204.709,127.665 203.756 L 128.529 202.025 132.965 201.898 C 135.404 201.828,137.974 201.733,138.676 201.686 C 139.378 201.638,140.061 201.776,140.194 201.990 M190.983 230.100 C 190.876 230.378,190.837 236.724,190.895 244.203 L 191.000 257.800 218.800 257.800 L 246.600 257.800 246.600 243.800 L 246.600 229.800 218.888 229.697 C 196.855 229.616,191.137 229.698,190.983 230.100 M261.382 230.103 C 261.276 230.379,261.237 236.724,261.295 244.203 L 261.400 257.800 288.975 257.903 C 310.770 257.984,316.616 257.900,316.869 257.503 C 317.238 256.921,317.321 231.182,316.957 230.233 C 316.630 229.380,261.709 229.251,261.382 230.103 M190.983 272.500 C 190.876 272.778,190.836 279.034,190.894 286.403 L 191.000 299.800 218.800 299.800 L 246.600 299.800 246.600 286.000 L 246.600 272.200 218.888 272.097 C 196.850 272.016,191.137 272.098,190.983 272.500 M261.383 272.500 C 261.276 272.778,261.236 279.034,261.294 286.403 L 261.400 299.800 289.200 299.800 L 317.000 299.800 317.000 286.000 L 317.000 272.200 289.288 272.097 C 267.250 272.016,261.537 272.098,261.383 272.500 M190.983 314.500 C 190.876 314.778,190.836 321.034,190.894 328.403 L 191.000 341.800 218.800 341.800 L 246.600 341.800 246.600 328.000 L 246.600 314.200 218.888 314.097 C 196.850 314.016,191.137 314.098,190.983 314.500 M261.467 314.267 C 261.320 314.413,261.200 320.715,261.200 328.269 L 261.200 342.005 289.100 341.903 L 317.000 341.800 317.112 328.800 C 317.173 321.650,317.125 315.395,317.004 314.900 L 316.785 314.000 289.259 314.000 C 274.120 314.000,261.613 314.120,261.467 314.267 " stroke="none" fill="#89b49c" fill-rule="evenodd"></path><path id="path1" d="M87.067 25.867 C 86.920 26.013,86.800 52.743,86.800 85.267 C 86.800 139.107,86.743 144.400,86.163 144.400 C 85.812 144.400,85.431 144.760,85.316 145.200 C 85.118 145.956,84.770 146.000,78.953 146.000 C 73.067 146.000,72.800 146.035,72.800 146.800 C 72.800 147.565,72.533 147.600,66.627 147.600 C 60.805 147.600,60.439 147.646,60.200 148.400 C 59.961 149.154,59.595 149.200,53.772 149.200 L 47.598 149.200 47.699 234.300 L 47.800 319.400 53.876 319.510 C 59.524 319.613,59.970 319.676,60.203 320.410 C 60.438 321.151,60.832 321.200,66.580 321.200 C 72.370 321.200,72.718 321.244,72.916 322.000 C 73.113 322.755,73.462 322.800,79.163 322.800 C 84.420 322.800,85.200 322.882,85.200 323.437 C 85.200 323.788,85.560 324.169,86.000 324.284 C 86.789 324.490,86.800 324.830,86.800 348.647 L 86.800 372.801 218.700 372.701 L 350.600 372.600 350.701 236.700 C 350.801 101.000,350.800 100.800,350.001 100.800 C 349.467 100.800,349.200 100.534,349.200 100.000 C 349.200 99.467,348.933 99.200,348.400 99.200 C 347.867 99.200,347.600 98.933,347.600 98.400 C 347.600 97.867,347.333 97.600,346.800 97.600 C 346.267 97.600,346.000 97.333,346.000 96.800 C 346.000 96.267,345.733 96.000,345.200 96.000 C 344.667 96.000,344.400 95.733,344.400 95.200 C 344.400 94.667,344.133 94.400,343.600 94.400 C 343.148 94.400,342.800 94.133,342.800 93.787 C 342.800 93.451,342.530 93.071,342.200 92.945 C 341.870 92.818,341.600 92.464,341.600 92.157 C 341.600 91.851,341.240 91.600,340.800 91.600 C 340.335 91.600,340.000 91.333,340.000 90.963 C 340.000 90.612,339.640 90.231,339.200 90.116 C 338.757 90.000,338.400 89.570,338.400 89.153 C 338.400 88.667,338.117 88.400,337.600 88.400 C 337.067 88.400,336.800 88.133,336.800 87.600 C 336.800 87.067,336.533 86.800,336.000 86.800 C 335.467 86.800,335.200 86.533,335.200 86.000 C 335.200 85.467,334.933 85.200,334.400 85.200 C 333.867 85.200,333.600 84.933,333.600 84.400 C 333.600 83.867,333.333 83.600,332.800 83.600 C 332.267 83.600,332.000 83.333,332.000 82.800 C 332.000 82.267,331.733 82.000,331.200 82.000 C 330.667 82.000,330.400 81.733,330.400 81.200 C 330.400 80.667,330.133 80.400,329.600 80.400 C 329.067 80.400,328.800 80.133,328.800 79.600 C 328.800 79.067,328.533 78.800,328.000 78.800 C 327.535 78.800,327.200 78.533,327.200 78.163 C 327.200 77.812,326.840 77.431,326.400 77.316 C 325.960 77.201,325.600 76.957,325.600 76.774 C 325.600 76.258,323.764 74.400,323.254 74.400 C 323.004 74.400,322.800 74.113,322.800 73.763 C 322.800 73.412,322.440 73.031,322.000 72.916 C 321.557 72.800,321.200 72.370,321.200 71.953 C 321.200 71.467,320.917 71.200,320.400 71.200 C 319.867 71.200,319.600 70.933,319.600 70.400 C 319.600 69.867,319.333 69.600,318.800 69.600 C 318.267 69.600,318.000 69.333,318.000 68.800 C 318.000 68.267,317.733 68.000,317.200 68.000 C 316.667 68.000,316.400 67.733,316.400 67.200 C 316.400 66.667,316.133 66.400,315.600 66.400 C 315.067 66.400,314.800 66.133,314.800 65.600 C 314.800 65.067,314.533 64.800,314.000 64.800 C 313.467 64.800,313.200 64.533,313.200 64.000 C 313.200 63.467,312.933 63.200,312.400 63.200 C 311.867 63.200,311.600 62.933,311.600 62.400 C 311.600 61.867,311.333 61.600,310.800 61.600 C 310.335 61.600,310.000 61.333,310.000 60.963 C 310.000 60.612,309.640 60.231,309.200 60.116 C 308.760 60.001,308.400 59.658,308.400 59.353 C 308.400 59.049,308.130 58.800,307.800 58.800 C 307.470 58.800,307.200 58.513,307.200 58.163 C 307.200 57.812,306.840 57.431,306.400 57.316 C 305.957 57.200,305.600 56.770,305.600 56.353 C 305.600 55.867,305.317 55.600,304.800 55.600 C 304.267 55.600,304.000 55.333,304.000 54.800 C 304.000 54.267,303.733 54.000,303.200 54.000 C 302.667 54.000,302.400 53.733,302.400 53.200 C 302.400 52.667,302.133 52.400,301.600 52.400 C 301.067 52.400,300.800 52.133,300.800 51.600 C 300.800 51.067,300.533 50.800,300.000 50.800 C 299.467 50.800,299.200 50.533,299.200 50.000 C 299.200 49.467,298.933 49.200,298.400 49.200 C 297.867 49.200,297.600 48.933,297.600 48.400 C 297.600 47.867,297.333 47.600,296.800 47.600 C 296.267 47.600,296.000 47.333,296.000 46.800 C 296.000 46.267,295.733 46.000,295.200 46.000 C 294.667 46.000,294.400 45.733,294.400 45.200 C 294.400 44.667,294.133 44.400,293.600 44.400 C 293.148 44.400,292.800 44.133,292.800 43.787 C 292.800 43.451,292.530 43.071,292.200 42.945 C 291.870 42.818,291.600 42.464,291.600 42.157 C 291.600 41.851,291.261 41.600,290.847 41.600 C 290.430 41.600,290.000 41.243,289.884 40.800 C 289.769 40.360,289.388 40.000,289.037 40.000 C 288.667 40.000,288.400 39.665,288.400 39.200 C 288.400 38.667,288.133 38.400,287.600 38.400 C 287.067 38.400,286.800 38.133,286.800 37.600 C 286.800 37.067,286.533 36.800,286.000 36.800 C 285.467 36.800,285.200 36.533,285.200 36.000 C 285.200 35.467,284.933 35.200,284.400 35.200 C 283.867 35.200,283.600 34.933,283.600 34.400 C 283.600 33.867,283.333 33.600,282.800 33.600 C 282.267 33.600,282.000 33.333,282.000 32.800 C 282.000 32.267,281.733 32.000,281.200 32.000 C 280.667 32.000,280.400 31.733,280.400 31.200 C 280.400 30.667,280.133 30.400,279.600 30.400 C 279.067 30.400,278.800 30.133,278.800 29.600 C 278.800 29.083,278.533 28.800,278.047 28.800 C 277.630 28.800,277.200 28.443,277.084 28.000 C 276.969 27.560,276.588 27.200,276.237 27.200 C 275.887 27.200,275.600 26.949,275.600 26.643 C 275.600 26.336,275.315 25.976,274.967 25.843 C 274.100 25.510,87.400 25.534,87.067 25.867 M273.600 31.600 C 273.835 32.040,274.207 32.400,274.426 32.400 C 274.955 32.400,308.400 65.859,308.400 66.388 C 308.400 66.615,308.591 66.800,308.824 66.800 C 309.377 66.800,320.800 78.223,320.800 78.776 C 320.800 79.009,320.985 79.200,321.211 79.200 C 321.616 79.200,344.400 101.792,344.400 102.193 C 344.400 102.307,344.760 102.760,345.200 103.200 C 346.442 104.442,346.468 366.921,345.226 367.586 C 344.144 368.165,93.456 368.165,92.374 367.586 C 91.476 367.106,91.133 324.019,92.014 322.374 C 92.496 321.473,93.770 321.380,95.225 322.140 C 95.815 322.448,98.441 322.796,101.416 322.962 C 104.257 323.120,107.126 323.493,107.791 323.791 C 108.472 324.096,111.269 324.447,114.200 324.596 C 117.869 324.781,119.686 325.043,120.370 325.485 C 121.000 325.891,122.892 326.219,125.770 326.420 C 128.207 326.591,130.709 326.927,131.332 327.167 C 131.954 327.408,134.879 327.777,137.832 327.988 C 140.784 328.199,143.515 328.535,143.900 328.735 C 144.285 328.934,146.760 329.222,149.400 329.374 C 152.040 329.526,155.190 329.896,156.400 330.195 C 157.610 330.494,160.400 330.859,162.600 331.005 C 164.800 331.152,167.590 331.517,168.800 331.816 C 170.010 332.116,173.610 332.428,176.800 332.510 C 180.199 332.597,182.962 332.853,183.474 333.129 C 183.954 333.388,184.899 333.600,185.574 333.600 L 186.800 333.600 186.800 234.400 L 186.800 135.200 185.480 135.200 C 184.754 135.200,183.959 135.401,183.713 135.647 C 183.459 135.901,180.863 136.224,177.705 136.394 C 174.474 136.568,171.738 136.912,171.173 137.215 C 170.580 137.533,168.171 137.808,165.000 137.918 C 161.363 138.045,159.439 138.288,158.600 138.725 C 157.767 139.159,155.870 139.403,152.400 139.522 C 148.953 139.641,147.027 139.887,146.200 140.315 C 145.372 140.743,143.262 141.012,139.400 141.183 C 136.068 141.330,133.427 141.637,132.879 141.941 C 132.339 142.240,129.852 142.539,126.879 142.662 C 123.636 142.797,121.314 143.092,120.456 143.477 C 119.605 143.858,117.328 144.151,114.256 144.275 C 111.239 144.397,108.903 144.695,108.086 145.061 C 107.262 145.431,104.877 145.729,101.686 145.862 C 98.623 145.990,96.099 146.298,95.340 146.637 C 93.605 147.412,92.504 147.342,92.014 146.426 C 91.550 145.560,91.405 31.529,91.867 31.067 C 92.671 30.262,273.168 30.792,273.600 31.600 M141.391 200.144 C 142.251 200.773,141.755 203.474,140.342 205.847 C 139.934 206.533,139.600 207.360,139.600 207.685 C 139.600 208.010,139.240 208.602,138.800 209.000 C 138.360 209.398,138.000 210.122,138.000 210.608 C 138.000 211.094,137.640 211.950,137.200 212.509 C 136.760 213.069,136.400 213.890,136.400 214.335 C 136.400 214.779,136.128 215.415,135.795 215.748 C 135.462 216.081,135.076 216.919,134.938 217.611 C 134.799 218.303,134.447 218.961,134.154 219.073 C 133.861 219.185,133.508 219.883,133.369 220.624 C 133.230 221.365,132.865 222.180,132.558 222.435 C 132.251 222.690,132.000 223.236,132.000 223.649 C 132.000 224.062,131.665 224.735,131.255 225.145 C 130.845 225.555,130.390 226.527,130.244 227.305 C 130.098 228.083,129.714 228.940,129.389 229.209 C 129.065 229.478,128.800 230.102,128.800 230.595 C 128.800 231.088,128.440 231.950,128.000 232.509 C 127.560 233.069,127.200 233.903,127.200 234.363 C 127.200 234.823,127.560 235.560,128.000 236.000 C 128.440 236.440,128.800 237.250,128.800 237.800 C 128.800 238.350,128.966 238.800,129.169 238.800 C 129.372 238.800,129.757 239.475,130.026 240.300 C 130.294 241.125,130.737 241.932,131.011 242.094 C 131.285 242.256,131.624 243.003,131.765 243.754 C 131.906 244.505,132.286 245.340,132.611 245.609 C 132.935 245.878,133.200 246.453,133.200 246.886 C 133.200 247.319,133.560 248.131,134.000 248.691 C 134.440 249.250,134.800 250.019,134.800 250.400 C 134.800 250.781,135.133 251.521,135.539 252.046 C 135.945 252.571,136.404 253.517,136.559 254.148 C 136.713 254.780,137.101 255.558,137.420 255.877 C 137.739 256.196,138.000 256.777,138.000 257.167 C 138.000 257.558,138.360 258.293,138.800 258.800 C 139.240 259.307,139.600 260.192,139.600 260.765 C 139.600 261.374,139.932 262.015,140.400 262.307 C 140.840 262.582,141.200 263.221,141.200 263.727 C 141.200 264.233,141.464 264.996,141.787 265.424 C 142.479 266.339,142.578 268.062,141.973 268.667 C 141.270 269.370,128.844 268.837,127.600 268.051 C 126.274 267.213,126.013 266.802,126.006 265.543 C 126.003 264.961,125.748 264.389,125.440 264.271 C 125.132 264.152,124.758 263.334,124.609 262.451 C 124.459 261.568,124.096 260.645,123.800 260.400 C 123.504 260.155,123.144 259.255,123.000 258.400 C 122.856 257.545,122.500 256.649,122.211 256.409 C 121.921 256.168,121.560 255.303,121.408 254.486 C 121.256 253.669,120.902 252.730,120.621 252.400 C 120.340 252.070,119.998 251.205,119.860 250.477 C 119.723 249.749,119.338 248.881,119.005 248.548 C 118.672 248.215,118.400 247.506,118.400 246.971 C 118.400 246.437,118.220 246.000,118.000 246.000 C 117.780 246.000,117.600 246.518,117.600 247.151 C 117.600 247.784,117.344 248.514,117.031 248.774 C 116.718 249.034,116.342 249.959,116.195 250.831 C 116.047 251.703,115.686 252.656,115.392 252.950 C 115.098 253.244,114.732 254.155,114.578 254.974 C 114.425 255.794,114.069 256.552,113.789 256.660 C 113.508 256.767,113.158 257.518,113.010 258.328 C 112.862 259.137,112.508 260.163,112.223 260.606 C 111.938 261.049,111.574 262.006,111.415 262.733 C 111.255 263.460,110.872 264.151,110.562 264.270 C 110.253 264.388,110.000 264.984,110.000 265.594 C 110.000 267.479,109.189 267.767,103.451 267.919 C 96.008 268.117,95.035 267.856,94.874 265.618 C 94.781 264.333,94.967 263.570,95.574 262.750 C 96.028 262.135,96.400 261.379,96.400 261.070 C 96.400 260.761,96.760 260.050,97.200 259.491 C 97.640 258.931,98.000 258.211,98.000 257.891 C 98.000 257.570,98.360 256.850,98.800 256.291 C 99.240 255.731,99.600 255.011,99.600 254.691 C 99.600 254.370,99.960 253.650,100.400 253.091 C 100.840 252.531,101.200 251.719,101.200 251.286 C 101.200 250.853,101.441 250.298,101.735 250.054 C 102.030 249.809,102.487 248.887,102.751 248.005 C 103.016 247.122,103.385 246.400,103.572 246.400 C 103.758 246.400,104.026 245.787,104.166 245.039 C 104.307 244.290,104.687 243.576,105.011 243.451 C 105.335 243.327,105.600 242.884,105.600 242.466 C 105.600 242.049,105.949 241.264,106.375 240.722 C 106.802 240.180,107.275 239.242,107.427 238.636 C 107.579 238.031,107.950 237.441,108.251 237.325 C 108.884 237.082,109.056 231.600,108.431 231.600 C 108.228 231.600,107.843 230.925,107.574 230.100 C 107.306 229.275,106.858 228.465,106.579 228.300 C 106.299 228.135,105.949 227.280,105.800 226.400 C 105.651 225.520,105.373 224.800,105.181 224.800 C 104.989 224.800,104.614 224.035,104.347 223.100 C 104.080 222.165,103.647 221.130,103.385 220.800 C 103.122 220.470,102.784 219.683,102.634 219.052 C 102.484 218.420,102.099 217.642,101.780 217.323 C 101.461 217.004,101.200 216.379,101.200 215.935 C 101.200 215.490,100.840 214.669,100.400 214.109 C 99.960 213.550,99.600 212.740,99.600 212.309 C 99.600 211.879,99.240 211.069,98.800 210.509 C 98.360 209.950,98.000 209.094,98.000 208.607 C 98.000 208.121,97.640 207.307,97.200 206.800 C 96.760 206.293,96.400 205.477,96.400 204.988 C 96.400 204.498,96.121 203.867,95.781 203.584 C 93.390 201.600,96.288 200.693,104.440 200.873 C 110.731 201.013,111.600 201.280,111.600 203.078 C 111.600 203.616,111.859 204.316,112.176 204.633 C 112.493 204.950,112.872 206.005,113.018 206.978 C 113.163 207.950,113.512 208.834,113.791 208.941 C 114.071 209.049,114.421 209.946,114.569 210.935 C 114.718 211.925,115.092 212.944,115.400 213.200 C 115.708 213.456,116.079 214.455,116.224 215.420 C 116.369 216.385,116.737 217.382,117.043 217.636 C 117.350 217.890,117.603 218.571,117.606 219.149 C 117.609 219.727,117.793 220.470,118.014 220.800 C 118.543 221.589,120.000 219.964,120.000 218.584 C 120.000 218.074,120.242 217.415,120.539 217.119 C 120.835 216.822,121.200 215.928,121.349 215.130 C 121.499 214.333,121.872 213.472,122.179 213.217 C 122.486 212.962,122.856 212.055,123.000 211.200 C 123.144 210.345,123.500 209.449,123.789 209.209 C 124.079 208.968,124.435 208.138,124.580 207.365 C 124.725 206.591,125.104 205.858,125.422 205.736 C 125.774 205.601,126.000 204.966,126.000 204.111 C 126.000 201.208,128.084 200.047,133.565 199.898 C 136.114 199.829,138.751 199.733,139.424 199.686 C 140.096 199.639,140.982 199.845,141.391 200.144 " stroke="none" fill="#1c7444" fill-rule="evenodd"></path><path id="path2" d="M91.785 31.300 C 91.680 31.575,91.641 57.540,91.699 89.000 L 91.803 146.200 91.901 88.733 C 91.980 43.208,92.104 31.225,92.500 31.065 C 92.892 30.907,92.889 30.856,92.487 30.832 C 92.206 30.814,91.889 31.025,91.785 31.300 M269.000 31.200 C 269.440 31.389,270.374 31.556,271.076 31.572 C 271.778 31.587,272.464 31.780,272.600 32.000 C 273.115 32.833,274.058 32.456,273.600 31.600 C 273.239 30.926,272.779 30.804,270.686 30.828 C 268.927 30.848,268.434 30.957,269.000 31.200 M291.196 49.377 C 300.537 58.714,308.247 66.287,308.329 66.204 C 308.527 66.007,274.913 32.400,274.518 32.400 C 274.350 32.400,281.855 40.040,291.196 49.377 M269.100 61.357 C 268.213 62.030,268.006 87.846,268.880 88.720 C 269.610 89.450,272.662 89.336,272.957 88.567 C 273.091 88.219,273.200 82.114,273.200 75.000 C 273.200 67.886,273.091 61.781,272.957 61.433 C 272.655 60.645,270.104 60.595,269.100 61.357 M314.600 72.768 C 317.900 76.045,320.665 78.663,320.745 78.585 C 320.948 78.386,309.321 66.799,308.924 66.804 C 308.746 66.807,311.300 69.490,314.600 72.768 M332.327 90.513 C 340.033 98.213,343.930 102.398,344.525 103.613 L 345.400 105.400 345.400 236.462 C 345.400 308.546,345.535 367.440,345.700 367.338 C 346.527 366.827,346.029 104.029,345.200 103.200 C 344.760 102.760,344.400 102.307,344.400 102.193 C 344.400 101.857,321.650 79.200,321.313 79.200 C 321.143 79.200,326.100 84.291,332.327 90.513 M269.322 103.858 C 269.226 104.110,269.204 105.010,269.273 105.858 L 269.400 107.400 293.200 107.400 L 317.000 107.400 317.123 105.696 C 317.205 104.562,317.072 103.932,316.723 103.810 C 315.442 103.362,269.494 103.409,269.322 103.858 M91.691 344.876 C 91.641 357.128,91.735 367.236,91.900 367.338 C 92.172 367.507,92.168 351.233,91.890 330.600 C 91.831 326.200,91.741 332.624,91.691 344.876 M121.000 326.800 C 121.136 327.020,122.002 327.203,122.924 327.206 C 123.846 327.209,125.322 327.463,126.205 327.771 C 127.087 328.079,129.967 328.461,132.605 328.620 C 135.242 328.779,137.850 329.080,138.400 329.290 C 138.950 329.499,141.762 329.830,144.649 330.026 C 147.536 330.221,150.416 330.586,151.049 330.835 C 151.682 331.085,154.360 331.438,157.000 331.620 C 159.640 331.801,162.873 332.231,164.184 332.575 C 165.517 332.924,168.196 333.200,170.258 333.200 C 172.287 333.200,174.410 333.376,174.974 333.590 C 175.758 333.888,176.000 333.854,176.000 333.445 C 176.000 333.062,175.042 332.832,172.634 332.637 C 170.783 332.487,168.668 332.188,167.934 331.972 C 167.200 331.757,165.160 331.483,163.400 331.362 C 160.240 331.147,156.346 330.652,154.400 330.218 C 153.335 329.981,151.720 329.807,146.600 329.377 C 144.840 329.229,143.237 329.011,143.037 328.892 C 142.837 328.772,140.317 328.444,137.437 328.163 C 134.557 327.881,130.400 327.370,128.200 327.028 C 123.567 326.306,120.638 326.214,121.000 326.800 M155.700 367.900 C 190.405 367.956,247.195 367.956,281.900 367.900 C 316.605 367.844,288.210 367.798,218.800 367.798 C 149.390 367.798,120.995 367.844,155.700 367.900 " stroke="none" fill="#657a71" fill-rule="evenodd"></path><path id="path3" d="M92.499 88.300 L 92.600 145.000 96.243 144.948 C 98.246 144.919,101.036 144.621,102.443 144.285 C 103.849 143.949,106.834 143.568,109.075 143.437 C 111.316 143.306,113.656 143.004,114.275 142.766 C 114.894 142.528,117.787 142.163,120.705 141.954 C 123.624 141.746,126.466 141.403,127.022 141.192 C 127.578 140.980,130.410 140.627,133.316 140.405 C 136.222 140.184,139.230 139.822,140.000 139.600 C 140.770 139.378,143.666 139.024,146.436 138.813 C 149.206 138.602,151.947 138.248,152.527 138.028 C 153.108 137.807,155.522 137.514,157.891 137.376 C 160.261 137.239,163.280 136.871,164.600 136.558 C 165.920 136.245,169.160 135.826,171.800 135.626 C 174.440 135.426,177.083 135.077,177.673 134.851 C 179.509 134.148,186.688 133.809,187.391 134.392 C 188.320 135.163,188.320 333.637,187.391 334.408 C 186.936 334.785,185.797 334.839,182.891 334.622 C 180.751 334.462,178.550 334.302,178.000 334.266 C 177.011 334.201,176.999 334.239,176.883 337.779 C 176.819 339.748,176.572 341.593,176.334 341.879 C 175.691 342.654,121.502 342.646,120.858 341.870 C 120.585 341.541,120.378 338.632,120.310 334.172 L 120.200 327.003 117.819 326.706 C 116.509 326.542,114.889 326.230,114.219 326.012 C 113.549 325.794,110.660 325.435,107.800 325.214 C 104.940 324.994,101.970 324.640,101.200 324.429 C 100.430 324.218,98.180 323.990,96.200 323.922 L 92.600 323.800 92.600 345.400 L 92.600 367.000 218.800 367.000 L 345.000 367.000 345.101 237.495 L 345.201 107.990 331.301 108.095 L 317.400 108.200 317.200 119.600 L 317.000 131.000 289.200 131.000 L 261.400 131.000 261.400 117.200 L 261.400 103.400 265.000 103.200 L 268.600 103.000 268.600 96.200 L 268.600 89.400 265.220 89.283 C 260.418 89.116,260.800 90.350,260.800 75.000 C 260.800 59.650,260.418 60.884,265.220 60.717 L 268.600 60.600 268.705 46.100 L 268.810 31.600 180.604 31.600 L 92.397 31.600 92.499 88.300 M273.528 34.100 C 273.458 34.595,273.447 50.226,273.504 68.835 L 273.609 102.671 308.269 102.951 C 327.332 103.105,343.076 103.084,343.257 102.903 C 343.565 102.595,274.553 33.200,273.939 33.200 C 273.783 33.200,273.598 33.605,273.528 34.100 M176.320 61.280 C 177.063 62.023,177.002 88.134,176.256 88.754 C 175.860 89.082,168.178 89.177,148.156 89.103 L 120.600 89.000 120.495 75.447 C 120.419 65.779,120.519 61.738,120.844 61.347 C 121.470 60.592,175.566 60.526,176.320 61.280 M246.305 61.133 C 246.700 61.383,246.788 64.474,246.705 75.227 L 246.600 89.000 218.800 89.000 L 191.000 89.000 190.895 75.227 C 190.812 64.474,190.900 61.383,191.295 61.133 C 191.955 60.714,245.645 60.714,246.305 61.133 M176.320 103.680 C 176.875 104.235,177.016 129.840,176.469 130.703 C 176.216 131.100,170.330 131.184,148.375 131.103 L 120.600 131.000 120.494 117.603 C 120.436 110.234,120.476 103.979,120.582 103.703 C 120.857 102.987,175.604 102.964,176.320 103.680 M246.600 117.200 L 246.600 131.000 218.800 131.000 L 191.000 131.000 190.894 117.603 C 190.836 110.234,190.876 103.978,190.983 103.700 C 191.137 103.298,196.850 103.216,218.888 103.297 L 246.600 103.400 246.600 117.200 M246.600 159.600 L 246.600 173.400 218.800 173.400 L 191.000 173.400 190.894 160.003 C 190.836 152.634,190.876 146.378,190.983 146.100 C 191.137 145.698,196.850 145.616,218.888 145.697 L 246.600 145.800 246.600 159.600 M317.112 158.800 C 317.173 165.950,317.125 172.206,317.003 172.703 L 316.783 173.605 289.092 173.503 L 261.400 173.400 261.295 159.497 L 261.190 145.595 289.095 145.697 L 317.000 145.800 317.112 158.800 M246.600 201.600 L 246.600 215.400 218.800 215.400 L 191.000 215.400 190.894 202.003 C 190.836 194.634,190.876 188.378,190.983 188.100 C 191.137 187.698,196.850 187.616,218.888 187.697 L 246.600 187.800 246.600 201.600 M317.000 201.600 L 317.000 215.400 289.200 215.400 L 261.400 215.400 261.294 202.003 C 261.236 194.634,261.276 188.378,261.383 188.100 C 261.537 187.698,267.250 187.616,289.288 187.697 L 317.000 187.800 317.000 201.600 M132.965 201.898 L 128.529 202.025 127.665 203.756 C 127.189 204.709,126.800 205.702,126.800 205.965 C 126.800 206.227,126.466 207.107,126.057 207.921 C 124.296 211.426,124.000 212.091,124.000 212.548 C 124.000 212.813,123.660 213.698,123.244 214.514 C 122.828 215.330,122.364 216.494,122.212 217.099 C 122.061 217.705,121.704 218.470,121.420 218.800 C 121.135 219.130,120.786 220.046,120.645 220.836 C 120.085 223.963,117.473 224.874,116.962 222.121 C 116.806 221.284,116.454 220.240,116.179 219.800 C 115.904 219.360,115.547 218.373,115.387 217.606 C 115.226 216.839,114.866 215.849,114.587 215.406 C 114.307 214.963,113.948 213.970,113.788 213.200 C 113.628 212.430,113.251 211.445,112.949 211.011 C 112.647 210.577,112.400 209.854,112.400 209.405 C 112.400 208.956,112.066 207.961,111.659 207.194 C 111.251 206.427,110.793 205.127,110.641 204.305 C 110.253 202.197,109.601 202.000,103.026 202.000 C 96.442 202.000,96.384 202.036,97.952 205.121 C 98.365 205.934,98.980 207.230,99.317 208.000 C 99.654 208.770,100.396 210.424,100.965 211.675 C 101.534 212.927,102.000 214.158,102.000 214.412 C 102.000 214.666,102.360 215.331,102.800 215.891 C 103.240 216.450,103.600 217.171,103.600 217.492 C 103.600 217.814,103.849 218.554,104.153 219.138 C 104.923 220.617,106.740 224.617,109.087 230.000 C 109.423 230.770,109.946 231.910,110.249 232.532 C 110.897 233.863,110.938 234.556,110.425 235.505 C 110.218 235.887,109.582 237.280,109.010 238.600 C 108.438 239.920,107.796 241.270,107.584 241.600 C 107.372 241.930,107.019 242.650,106.799 243.200 C 106.580 243.750,106.232 244.470,106.026 244.800 C 105.657 245.390,104.551 247.649,102.498 252.000 C 101.927 253.210,101.246 254.470,100.984 254.800 C 100.722 255.130,100.384 255.917,100.234 256.548 C 100.084 257.180,99.699 257.958,99.380 258.277 C 99.061 258.596,98.800 259.194,98.800 259.605 C 98.800 260.016,98.620 260.464,98.401 260.600 C 97.793 260.975,96.000 264.962,96.000 265.939 C 96.000 266.782,96.125 266.800,101.951 266.800 C 108.535 266.800,108.445 266.834,109.176 264.100 C 109.426 263.165,109.802 262.400,110.011 262.400 C 110.220 262.400,110.508 261.668,110.651 260.773 C 110.794 259.878,111.142 258.915,111.424 258.633 C 111.706 258.351,112.136 257.381,112.379 256.477 C 112.623 255.573,112.997 254.726,113.211 254.593 C 113.425 254.461,113.602 254.048,113.604 253.676 C 113.606 253.304,114.050 252.100,114.591 251.000 C 115.132 249.900,115.581 248.707,115.587 248.349 C 115.594 247.991,115.870 247.474,116.200 247.200 C 116.530 246.926,116.800 246.386,116.800 246.000 C 116.800 244.897,117.863 244.189,118.600 244.800 C 118.930 245.074,119.200 245.524,119.200 245.800 C 119.200 246.076,119.458 246.517,119.774 246.779 C 120.090 247.041,120.474 247.828,120.628 248.528 C 120.781 249.227,121.243 250.427,121.653 251.194 C 122.064 251.961,122.400 252.884,122.400 253.245 C 122.400 253.606,122.651 254.110,122.958 254.365 C 123.265 254.620,123.638 255.478,123.787 256.273 C 123.936 257.067,124.297 258.096,124.590 258.558 C 124.882 259.021,125.241 259.973,125.386 260.672 C 125.532 261.372,125.910 262.159,126.226 262.421 C 126.542 262.683,126.800 263.253,126.800 263.687 C 126.800 264.121,127.109 264.999,127.486 265.638 L 128.172 266.800 133.286 266.871 C 136.099 266.911,138.803 266.956,139.295 266.971 C 140.813 267.020,139.581 261.578,137.913 260.867 C 137.741 260.793,137.600 260.433,137.600 260.067 C 137.600 259.700,136.805 257.780,135.833 255.800 C 134.861 253.820,133.320 250.580,132.409 248.600 C 131.498 246.620,130.583 244.730,130.375 244.400 C 130.168 244.070,129.817 243.350,129.596 242.800 C 129.375 242.250,128.926 241.322,128.597 240.738 C 128.269 240.154,128.000 239.414,128.000 239.092 C 128.000 238.771,127.608 238.009,127.128 237.399 C 125.589 235.442,126.836 228.541,128.887 227.667 C 129.059 227.593,129.200 227.170,129.200 226.726 C 129.200 226.047,130.213 223.778,131.667 221.200 C 131.853 220.870,132.103 220.330,132.224 220.000 C 132.344 219.670,132.779 218.680,133.191 217.800 C 133.602 216.920,134.050 215.811,134.185 215.336 C 134.320 214.861,134.694 214.254,135.015 213.987 C 135.337 213.720,135.600 213.188,135.600 212.805 C 135.600 212.422,135.960 211.650,136.400 211.091 C 136.840 210.531,137.200 209.778,137.200 209.416 C 137.200 208.792,137.501 208.112,139.560 204.090 C 140.592 202.074,140.406 201.570,138.676 201.686 C 137.974 201.733,135.404 201.828,132.965 201.898 M246.600 243.800 L 246.600 257.800 218.800 257.800 L 191.000 257.800 190.895 244.203 C 190.837 236.724,190.876 230.378,190.983 230.100 C 191.137 229.698,196.855 229.616,218.888 229.697 L 246.600 229.800 246.600 243.800 M316.957 230.233 C 317.321 231.182,317.238 256.921,316.869 257.503 C 316.616 257.900,310.770 257.984,288.975 257.903 L 261.400 257.800 261.295 244.203 C 261.237 236.724,261.276 230.379,261.382 230.103 C 261.709 229.251,316.630 229.380,316.957 230.233 M246.600 286.000 L 246.600 299.800 218.800 299.800 L 191.000 299.800 190.894 286.403 C 190.836 279.034,190.876 272.778,190.983 272.500 C 191.137 272.098,196.850 272.016,218.888 272.097 L 246.600 272.200 246.600 286.000 M317.000 286.000 L 317.000 299.800 289.200 299.800 L 261.400 299.800 261.294 286.403 C 261.236 279.034,261.276 272.778,261.383 272.500 C 261.537 272.098,267.250 272.016,289.288 272.097 L 317.000 272.200 317.000 286.000 M246.600 328.000 L 246.600 341.800 218.800 341.800 L 191.000 341.800 190.894 328.403 C 190.836 321.034,190.876 314.778,190.983 314.500 C 191.137 314.098,196.850 314.016,218.888 314.097 L 246.600 314.200 246.600 328.000 M317.004 314.900 C 317.125 315.395,317.173 321.650,317.112 328.800 L 317.000 341.800 289.100 341.903 L 261.200 342.005 261.200 328.269 C 261.200 320.715,261.320 314.413,261.467 314.267 C 261.613 314.120,274.120 314.000,289.259 314.000 L 316.785 314.000 317.004 314.900 " stroke="none" fill="#fcfcfc" fill-rule="evenodd"></path><path id="path4" d="M268.947 105.800 L 269.000 107.800 293.000 107.806 L 317.000 107.813 293.200 107.606 L 269.400 107.400 269.147 105.600 L 268.894 103.800 268.947 105.800 M181.251 135.231 C 180.729 135.440,178.839 135.777,177.051 135.979 L 173.800 136.348 178.506 136.248 C 181.473 136.185,183.387 135.973,183.686 135.674 C 183.947 135.413,184.754 135.200,185.480 135.200 L 186.800 135.200 186.800 234.442 L 186.800 333.684 185.300 333.475 C 184.475 333.359,182.990 333.078,182.000 332.850 C 179.826 332.349,176.000 332.272,176.000 332.729 C 176.000 332.910,176.961 333.084,178.136 333.115 C 179.311 333.146,180.762 333.358,181.362 333.586 C 181.962 333.813,183.520 334.000,184.826 334.000 L 187.200 334.000 187.200 234.400 L 187.200 134.800 184.700 134.825 C 183.325 134.839,181.773 135.022,181.251 135.231 M168.807 136.847 C 168.260 137.065,165.309 137.421,162.249 137.638 C 159.189 137.856,156.373 138.200,155.992 138.404 C 155.611 138.608,152.827 138.973,149.806 139.214 C 146.786 139.455,143.855 139.827,143.294 140.040 C 142.733 140.253,140.085 140.595,137.410 140.799 C 134.734 141.003,130.959 141.447,129.020 141.785 C 127.082 142.123,124.574 142.403,123.448 142.407 C 122.321 142.411,120.165 142.676,118.654 142.996 C 117.144 143.316,113.708 143.767,111.017 143.998 C 108.327 144.230,105.525 144.592,104.790 144.803 C 103.026 145.309,93.304 146.126,92.540 145.832 C 92.127 145.674,91.983 145.819,92.075 146.301 C 92.252 147.230,93.664 147.389,95.285 146.663 C 96.109 146.294,98.499 145.995,101.686 145.862 C 104.877 145.729,107.262 145.431,108.086 145.061 C 108.903 144.695,111.239 144.397,114.256 144.275 C 117.328 144.151,119.605 143.858,120.456 143.477 C 121.314 143.092,123.636 142.797,126.879 142.662 C 129.852 142.539,132.339 142.240,132.879 141.941 C 133.427 141.637,136.068 141.330,139.400 141.183 C 143.262 141.012,145.372 140.743,146.200 140.315 C 147.027 139.887,148.953 139.641,152.400 139.522 C 156.054 139.396,157.745 139.168,158.680 138.675 C 159.620 138.179,161.002 137.995,163.880 137.983 C 167.573 137.966,169.050 137.772,172.400 136.862 C 173.791 136.484,173.788 136.482,171.800 136.466 C 170.700 136.458,169.353 136.629,168.807 136.847 M133.565 199.898 C 128.084 200.047,126.000 201.208,126.000 204.111 C 126.000 204.966,125.774 205.601,125.422 205.736 C 125.104 205.858,124.725 206.591,124.580 207.365 C 124.435 208.138,124.079 208.968,123.789 209.209 C 123.500 209.449,123.144 210.345,123.000 211.200 C 122.856 212.055,122.486 212.962,122.179 213.217 C 121.872 213.472,121.499 214.333,121.349 215.130 C 121.200 215.928,120.835 216.822,120.539 217.119 C 120.242 217.415,120.000 218.074,120.000 218.584 C 120.000 219.964,118.543 221.589,118.014 220.800 C 117.793 220.470,117.609 219.727,117.606 219.149 C 117.603 218.571,117.350 217.890,117.043 217.636 C 116.737 217.382,116.369 216.385,116.224 215.420 C 116.079 214.455,115.708 213.456,115.400 213.200 C 115.092 212.944,114.718 211.925,114.569 210.935 C 114.421 209.946,114.071 209.049,113.791 208.941 C 113.512 208.834,113.163 207.950,113.018 206.978 C 112.872 206.005,112.493 204.950,112.176 204.633 C 111.859 204.316,111.600 203.616,111.600 203.078 C 111.600 201.280,110.731 201.013,104.440 200.873 C 96.288 200.693,93.390 201.600,95.781 203.584 C 96.121 203.867,96.400 204.498,96.400 204.988 C 96.400 205.477,96.760 206.293,97.200 206.800 C 97.640 207.307,98.000 208.121,98.000 208.607 C 98.000 209.094,98.360 209.950,98.800 210.509 C 99.240 211.069,99.600 211.879,99.600 212.309 C 99.600 212.740,99.960 213.550,100.400 214.109 C 100.840 214.669,101.200 215.490,101.200 215.935 C 101.200 216.379,101.461 217.004,101.780 217.323 C 102.099 217.642,102.484 218.420,102.634 219.052 C 102.784 219.683,103.122 220.470,103.385 220.800 C 103.647 221.130,104.080 222.165,104.347 223.100 C 104.614 224.035,104.989 224.800,105.181 224.800 C 105.373 224.800,105.651 225.520,105.800 226.400 C 105.949 227.280,106.299 228.135,106.579 228.300 C 106.858 228.465,107.306 229.275,107.574 230.100 C 107.843 230.925,108.228 231.600,108.431 231.600 C 109.056 231.600,108.884 237.082,108.251 237.325 C 107.950 237.441,107.579 238.031,107.427 238.636 C 107.275 239.242,106.802 240.180,106.375 240.722 C 105.949 241.264,105.600 242.049,105.600 242.466 C 105.600 242.884,105.335 243.327,105.011 243.451 C 104.687 243.576,104.307 244.290,104.166 245.039 C 104.026 245.787,103.758 246.400,103.572 246.400 C 103.385 246.400,103.016 247.122,102.751 248.005 C 102.487 248.887,102.030 249.809,101.735 250.054 C 101.441 250.298,101.200 250.853,101.200 251.286 C 101.200 251.719,100.840 252.531,100.400 253.091 C 99.960 253.650,99.600 254.370,99.600 254.691 C 99.600 255.011,99.240 255.731,98.800 256.291 C 98.360 256.850,98.000 257.570,98.000 257.891 C 98.000 258.211,97.640 258.931,97.200 259.491 C 96.760 260.050,96.400 260.761,96.400 261.070 C 96.400 261.379,96.028 262.135,95.574 262.750 C 94.967 263.570,94.781 264.333,94.874 265.618 C 95.035 267.856,96.008 268.117,103.451 267.919 C 109.189 267.767,110.000 267.479,110.000 265.594 C 110.000 264.984,110.253 264.388,110.562 264.270 C 110.872 264.151,111.255 263.460,111.415 262.733 C 111.574 262.006,111.938 261.049,112.223 260.606 C 112.508 260.163,112.862 259.137,113.010 258.328 C 113.158 257.518,113.508 256.767,113.789 256.660 C 114.069 256.552,114.425 255.794,114.578 254.974 C 114.732 254.155,115.098 253.244,115.392 252.950 C 115.686 252.656,116.047 251.703,116.195 250.831 C 116.342 249.959,116.718 249.034,117.031 248.774 C 117.344 248.514,117.600 247.784,117.600 247.151 C 117.600 246.518,117.780 246.000,118.000 246.000 C 118.220 246.000,118.400 246.437,118.400 246.971 C 118.400 247.506,118.672 248.215,119.005 248.548 C 119.338 248.881,119.723 249.749,119.860 250.477 C 119.998 251.205,120.340 252.070,120.621 252.400 C 120.902 252.730,121.256 253.669,121.408 254.486 C 121.560 255.303,121.921 256.168,122.211 256.409 C 122.500 256.649,122.856 257.545,123.000 258.400 C 123.144 259.255,123.504 260.155,123.800 260.400 C 124.096 260.645,124.459 261.568,124.609 262.451 C 124.758 263.334,125.132 264.152,125.440 264.271 C 125.748 264.389,126.003 264.961,126.006 265.543 C 126.013 266.802,126.274 267.213,127.600 268.051 C 128.844 268.837,141.270 269.370,141.973 268.667 C 142.578 268.062,142.479 266.339,141.787 265.424 C 141.464 264.996,141.200 264.233,141.200 263.727 C 141.200 263.221,140.840 262.582,140.400 262.307 C 139.932 262.015,139.600 261.374,139.600 260.765 C 139.600 260.192,139.240 259.307,138.800 258.800 C 138.360 258.293,138.000 257.558,138.000 257.167 C 138.000 256.777,137.739 256.196,137.420 255.877 C 137.101 255.558,136.713 254.780,136.559 254.148 C 136.404 253.517,135.945 252.571,135.539 252.046 C 135.133 251.521,134.800 250.781,134.800 250.400 C 134.800 250.019,134.440 249.250,134.000 248.691 C 133.560 248.131,133.200 247.319,133.200 246.886 C 133.200 246.453,132.935 245.878,132.611 245.609 C 132.286 245.340,131.906 244.505,131.765 243.754 C 131.624 243.003,131.285 242.256,131.011 242.094 C 130.737 241.932,130.294 241.125,130.026 240.300 C 129.757 239.475,129.372 238.800,129.169 238.800 C 128.966 238.800,128.800 238.350,128.800 237.800 C 128.800 237.250,128.440 236.440,128.000 236.000 C 127.560 235.560,127.200 234.823,127.200 234.363 C 127.200 233.903,127.560 233.069,128.000 232.509 C 128.440 231.950,128.800 231.088,128.800 230.595 C 128.800 230.102,129.065 229.478,129.389 229.209 C 129.714 228.940,130.098 228.083,130.244 227.305 C 130.390 226.527,130.845 225.555,131.255 225.145 C 131.665 224.735,132.000 224.062,132.000 223.649 C 132.000 223.236,132.251 222.690,132.558 222.435 C 132.865 222.180,133.230 221.365,133.369 220.624 C 133.508 219.883,133.861 219.185,134.154 219.073 C 134.447 218.961,134.799 218.303,134.938 217.611 C 135.076 216.919,135.462 216.081,135.795 215.748 C 136.128 215.415,136.400 214.779,136.400 214.335 C 136.400 213.890,136.760 213.069,137.200 212.509 C 137.640 211.950,138.000 211.094,138.000 210.608 C 138.000 210.122,138.360 209.398,138.800 209.000 C 139.240 208.602,139.600 208.010,139.600 207.685 C 139.600 207.360,139.934 206.533,140.342 205.847 C 142.614 202.031,142.235 199.488,139.424 199.686 C 138.751 199.733,136.114 199.829,133.565 199.898 M140.856 201.362 C 141.216 202.154,141.109 202.716,140.247 204.537 C 139.671 205.755,139.200 206.920,139.200 207.126 C 139.200 207.333,138.948 207.711,138.639 207.967 C 138.331 208.223,137.958 208.920,137.811 209.516 C 137.578 210.464,136.666 212.449,132.165 221.806 C 131.634 222.909,131.200 224.034,131.200 224.306 C 131.200 224.578,131.023 224.800,130.808 224.800 C 130.592 224.800,130.299 225.295,130.156 225.900 C 129.911 226.939,129.322 228.252,127.560 231.679 C 126.594 233.560,126.600 234.863,127.583 236.721 C 128.309 238.091,131.661 245.128,133.814 249.800 C 136.242 255.068,136.928 256.432,137.251 256.631 C 137.443 256.750,137.600 257.118,137.600 257.448 C 137.600 258.142,139.481 262.310,140.196 263.200 C 141.994 265.438,141.775 268.627,139.853 268.196 C 139.164 268.041,136.110 267.799,133.067 267.657 C 127.267 267.388,126.400 267.070,126.400 265.218 C 126.400 264.871,126.040 263.916,125.600 263.096 C 125.160 262.275,124.800 261.377,124.801 261.101 C 124.802 260.826,124.458 259.880,124.038 259.000 C 123.309 257.475,122.774 256.185,120.802 251.200 C 118.714 245.920,117.856 244.700,117.356 246.300 C 117.236 246.685,116.881 247.478,116.569 248.062 C 116.256 248.646,116.000 249.332,116.000 249.586 C 116.000 250.046,114.503 253.563,113.384 255.732 C 113.063 256.355,112.794 257.075,112.786 257.332 C 112.779 257.590,112.425 258.520,112.000 259.400 C 111.575 260.280,111.221 261.279,111.214 261.620 C 111.206 261.961,110.975 262.464,110.700 262.738 C 110.425 263.011,109.930 264.075,109.600 265.102 C 108.857 267.414,108.531 267.520,102.200 267.520 C 94.115 267.520,94.003 267.346,97.529 260.239 C 98.850 257.577,100.035 255.130,100.163 254.800 C 100.290 254.470,100.563 253.930,100.768 253.600 C 100.973 253.270,103.000 249.220,105.271 244.600 C 110.160 234.653,110.257 234.093,107.925 229.200 C 107.139 227.550,106.114 225.345,105.648 224.300 C 103.573 219.650,101.212 214.419,100.355 212.574 C 99.940 211.679,99.600 210.835,99.600 210.697 C 99.600 210.559,98.897 208.951,98.037 207.123 C 95.216 201.124,95.167 201.178,103.326 201.240 C 110.027 201.291,110.466 201.413,111.106 203.417 C 111.384 204.288,111.781 205.360,111.989 205.800 C 112.197 206.240,112.559 207.357,112.794 208.283 C 113.029 209.209,113.376 210.062,113.566 210.179 C 113.755 210.296,114.036 211.068,114.190 211.896 C 114.345 212.723,114.619 213.580,114.799 213.800 C 115.132 214.207,116.490 217.857,117.254 220.400 C 118.039 223.015,119.568 222.540,120.349 219.437 C 120.597 218.453,120.980 217.536,121.200 217.400 C 121.420 217.264,121.600 216.882,121.600 216.552 C 121.600 215.965,123.081 212.462,124.227 210.338 C 124.542 209.754,124.800 208.934,124.800 208.515 C 124.800 208.096,125.067 207.404,125.394 206.976 C 125.720 206.549,126.186 205.480,126.429 204.600 C 127.257 201.607,127.978 201.204,132.570 201.172 C 134.786 201.156,136.960 200.989,137.400 200.800 C 138.991 200.116,140.392 200.344,140.856 201.362 M92.267 321.867 C 91.845 322.289,91.957 323.274,92.396 323.002 C 92.916 322.681,101.779 323.472,105.600 324.182 C 107.250 324.488,110.310 324.845,112.400 324.975 C 114.490 325.104,117.190 325.476,118.400 325.801 C 119.610 326.125,121.050 326.372,121.600 326.349 C 122.407 326.315,122.449 326.269,121.817 326.108 C 121.386 325.999,120.666 325.673,120.217 325.384 C 119.717 325.063,117.383 324.757,114.200 324.596 C 111.269 324.447,108.472 324.096,107.791 323.791 C 107.126 323.493,104.257 323.120,101.416 322.962 C 98.441 322.796,95.815 322.448,95.225 322.140 C 94.124 321.565,92.700 321.434,92.267 321.867 M128.400 327.006 C 130.270 327.295,131.857 327.475,131.928 327.405 C 132.180 327.154,127.929 326.401,126.480 326.440 C 125.580 326.464,126.333 326.686,128.400 327.006 M138.505 328.287 C 139.114 328.379,140.014 328.377,140.505 328.282 C 140.997 328.187,140.500 328.111,139.400 328.114 C 138.300 328.117,137.897 328.195,138.505 328.287 M142.600 328.800 C 143.796 329.314,144.795 329.314,144.000 328.800 C 143.670 328.587,143.040 328.422,142.600 328.434 L 141.800 328.456 142.600 328.800 M147.905 329.483 C 148.402 329.579,149.122 329.575,149.505 329.475 C 149.887 329.375,149.480 329.296,148.600 329.301 C 147.720 329.305,147.407 329.387,147.905 329.483 M152.433 329.762 C 152.617 329.942,154.150 330.242,156.600 330.578 C 158.083 330.781,158.054 330.754,156.200 330.206 C 154.346 329.659,152.049 329.388,152.433 329.762 M159.900 331.082 C 160.395 331.178,161.205 331.178,161.700 331.082 C 162.195 330.987,161.790 330.909,160.800 330.909 C 159.810 330.909,159.405 330.987,159.900 331.082 M167.200 331.817 C 170.063 332.532,171.198 332.495,168.600 331.772 C 167.500 331.466,166.240 331.227,165.800 331.242 C 165.360 331.256,165.990 331.515,167.200 331.817 M172.700 332.682 C 173.195 332.778,174.005 332.778,174.500 332.682 C 174.995 332.587,174.590 332.509,173.600 332.509 C 172.610 332.509,172.205 332.587,172.700 332.682 " stroke="none" fill="#549474" fill-rule="evenodd"></path></g></svg>