<svg width="103" height="102" viewBox="0 0 103 102" fill="none" xmlns="http://www.w3.org/2000/svg">
<path d="M85.7737 28.7184L64.3593 7.304C63.7622 6.70694 62.9562 6.36861 62.1104 6.36861H19.8387C18.0774 6.36861 16.6544 7.79159 16.6544 9.55291V92.3448C16.6544 94.1061 18.0774 95.5291 19.8387 95.5291H83.5248C85.2861 95.5291 86.7091 94.1061 86.7091 92.3448V30.9773C86.7091 30.1315 86.3708 29.3155 85.7737 28.7184ZM79.3653 32.4401H60.6376V13.7124L79.3653 32.4401ZM79.5444 88.3644H23.8191V13.5333H53.871V35.0273C53.871 36.1358 54.3113 37.1988 55.0951 37.9826C55.8789 38.7664 56.9419 39.2067 58.0504 39.2067H79.5444V88.3644ZM51.8907 57.7255L45.741 47.5357C45.5221 47.1775 45.134 46.9585 44.7161 46.9585H40.8949C40.6661 46.9585 40.4471 47.0182 40.2581 47.1476C39.7008 47.4959 39.5317 48.2323 39.8899 48.7995L48.0795 61.7755L39.7804 74.9904C39.6677 75.1716 39.6054 75.3797 39.6 75.5931C39.5946 75.8065 39.6464 76.0174 39.7499 76.2041C39.8534 76.3908 40.0048 76.5465 40.1887 76.655C40.3725 76.7635 40.582 76.8209 40.7954 76.8213H44.2285C44.6464 76.8213 45.0246 76.6024 45.2435 76.2541L51.4827 66.1539L57.6822 76.2442C57.9011 76.6024 58.2892 76.8114 58.6972 76.8114H62.4288C62.6577 76.8114 62.8766 76.7417 63.0756 76.6223C63.6329 76.2641 63.7921 75.5277 63.4338 74.9705L55.075 61.9944L63.5632 48.8094C63.6781 48.6287 63.7425 48.4205 63.7496 48.2065C63.7567 47.9924 63.7064 47.7804 63.6038 47.5925C63.5011 47.4045 63.35 47.2475 63.1661 47.1377C62.9822 47.028 62.7723 46.9696 62.5582 46.9685H59.0057C58.5877 46.9685 58.1996 47.1874 57.9807 47.5456L51.8907 57.7255Z" fill="#939397"/>
</svg>
